<svg width="0" height="0" class="hidden">
  <symbol xmlns="http://www.w3.org/2000/svg" xmlns:xlink="http://www.w3.org/1999/xlink" version="1.1" xml:space="preserve" viewBox="0 0 400 400" id="github">
    <desc>Created with Fabric.js 3.6.2</desc>
    <defs></defs>
    <g transform="matrix(3.33 0 0 3.33 200 200)" id="Layer_1">
      <path transform=" translate(-34, -34)" d="M 21.543 34.568 c -0.054 0 0.592 1.367 0.61 1.367 c 1.41 2.516 4.128 4.08 8.713 4.514 c -0.654 0.488 -1.44 1.414 -1.549 2.484 c -0.823 0.523 -2.478 0.696 -3.764 0.297 c -1.803 -0.559 -2.493 -4.066 -5.192 -3.566 c -0.584 0.107 -0.468 0.486 0.037 0.809 c 0.823 0.523 1.597 1.178 2.194 2.571 c 0.459 1.07 1.423 2.981 4.473 2.981 c 1.21 0 2.058 -0.143 2.058 -0.143 s 0.023 2.731 0.023 3.793 c 0 1.225 -1.682 1.57 -1.682 2.159 c 0 0.233 0.557 0.255 1.004 0.255 c 0.884 0 2.723 -0.725 2.723 -1.998 c 0 -1.011 0.017 -4.41 0.017 -5.006 c 0 -1.3 0.709 -1.712 0.709 -1.712 s 0.088 6.94 -0.169 7.872 c -0.302 1.094 -0.847 0.939 -0.847 1.427 c 0 0.726 2.214 0.179 2.948 -1.416 c 0.567 -1.239 0.319 -8.05 0.319 -8.05 l 0.605 -0.012 c 0 0 0.034 3.117 0.013 4.542 c -0.021 1.476 -0.122 3.342 0.77 4.222 c 0.586 0.579 2.484 1.594 2.484 0.666 c 0 -0.539 -1.04 -0.982 -1.04 -2.441 v -6.715 c 0.831 0 0.706 2.208 0.706 2.208 l 0.061 4.103 c 0 0 -0.184 1.494 1.645 2.119 c 0.645 0.223 2.025 0.283 2.09 -0.09 c 0.065 -0.373 -1.662 -0.928 -1.678 -2.084 c -0.01 -0.707 0.032 -1.119 0.032 -4.187 c 0 -3.068 -0.419 -4.202 -1.88 -5.106 c 4.508 -0.455 7.299 -1.551 8.658 -4.486 c 0.106 0.003 0.555 -1.371 0.496 -1.371 c 0.305 -1.108 0.47 -2.419 0.502 -3.971 c -0.008 -4.21 -2.058 -5.699 -2.451 -6.398 c 0.58 -3.187 -0.098 -4.637 -0.412 -5.135 c -1.162 -0.406 -4.041 1.045 -5.615 2.067 c -2.564 -0.737 -7.986 -0.666 -10.019 0.19 c -3.751 -2.639 -5.736 -2.235 -5.736 -2.235 s -1.283 2.259 -0.339 5.565 c -1.234 1.546 -2.154 2.64 -2.154 5.539 C 20.906 31.83 21.102 33.292 21.543 34.568 z M 34 64 C 17.432 64 4 50.568 4 34 C 4 17.431 17.432 4 34 4 s 30 13.431 30 30 C 64 50.568 50.568 64 34 64 z" stroke-linecap="round"></path>
    </g>
  </symbol>
</svg>